<svg width="700" height="700" xmlns="http://www.w3.org/2000/svg" xml:space="preserve" version="1.1">

 <g>
  <title>Layer 1</title>
  <g id="svg_1">
   <path id="svg_2" stroke-miterlimit="10" stroke-linejoin="round" stroke-linecap="round" stroke-width="1.8364" stroke="#0274BD" fill="#0274BD" d="m86.38602,108.258c2.952,0 5.82,-0.948 8.213,-2.693c1.039,2.71 3.586,4.555 6.515,4.555c2.304,0 4.394,-1.136 5.69,-3.001c3.57,5.797 9.742,9.332 16.478,9.332c6.499,0 12.571,-3.364 16.184,-8.873c1.829,2.519 4.705,4.032 7.815,4.032c3.359,0 6.47,-1.802 8.246,-4.685c3.014,2.992 7.048,4.685 11.257,4.685c5.005,0 9.71,-2.382 12.78,-6.422c2.487,1.986 5.542,3.069 8.709,3.069c7.847,0 14.232,-6.581 14.232,-14.67s-6.385,-14.671 -14.232,-14.671c-2.913,0 -5.72,0.911 -8.084,2.597c-0.387,-11.726 -9.761,-21.143 -21.229,-21.143c-4.446,0 -8.806,1.457 -12.403,4.125c-4.315,-8.815 -13.122,-14.447 -22.753,-14.447c-12.781,0 -23.545,9.835 -25.241,22.706c-0.963,-0.606 -2.076,-0.937 -3.223,-0.937c-3.417,0 -6.198,2.866 -6.198,6.389c0,0.338 0.026,0.673 0.077,1.003c-0.931,-0.195 -1.878,-0.293 -2.832,-0.293c-7.847,0 -14.232,6.581 -14.232,14.671s6.383,14.671 14.231,14.671z"/>
   <g id="svg_3">
    <path id="svg_4" fill="#FFFFFF" d="m187.35302,79.778c-3.484,0 -6.655,1.34 -9.028,3.531c0.023,-0.397 0.038,-0.797 0.038,-1.2c0,-11.224 -9.099,-20.323 -20.323,-20.323c-4.828,0 -9.26,1.687 -12.746,4.498c-3.841,-8.552 -12.427,-14.512 -22.41,-14.512c-13.012,0 -23.654,10.12 -24.501,22.918c-0.968,-1.101 -2.382,-1.799 -3.963,-1.799c-2.916,0 -5.28,2.364 -5.28,5.28c0,0.82 0.192,1.594 0.526,2.287c-1.321,-0.439 -2.731,-0.68 -4.199,-0.68c-7.353,0 -13.314,5.961 -13.314,13.314c0,7.353 5.961,13.314 13.314,13.314c3.338,0 6.387,-1.231 8.724,-3.261c0.49,2.876 2.988,5.068 6.004,5.068c2.578,0 4.778,-1.603 5.669,-3.864c3.106,5.945 9.326,10.006 16.498,10.006c6.932,0 12.973,-3.793 16.175,-9.414c1.485,2.805 4.43,4.717 7.824,4.717c3.572,0 6.641,-2.12 8.04,-5.166c2.805,3.167 6.899,5.166 11.463,5.166c5.236,0 9.857,-2.631 12.617,-6.641c2.355,2.106 5.463,3.389 8.871,3.389c7.353,0 13.314,-5.961 13.314,-13.314c0,-7.353 -5.96,-13.314 -13.313,-13.314z"/>
    <path id="svg_5" stroke-miterlimit="10" stroke-linejoin="round" stroke-linecap="round" stroke-width="1.8364" stroke="#0274BD" fill="none" d="m187.35302,79.778c-3.484,0 -6.655,1.34 -9.028,3.531c0.023,-0.397 0.038,-0.797 0.038,-1.2c0,-11.224 -9.099,-20.323 -20.323,-20.323c-4.828,0 -9.26,1.687 -12.746,4.498c-3.841,-8.552 -12.427,-14.512 -22.41,-14.512c-13.012,0 -23.654,10.12 -24.501,22.918c-0.968,-1.101 -2.382,-1.799 -3.963,-1.799c-2.916,0 -5.28,2.364 -5.28,5.28c0,0.82 0.192,1.594 0.526,2.287c-1.321,-0.439 -2.731,-0.68 -4.199,-0.68c-7.353,0 -13.314,5.961 -13.314,13.314c0,7.353 5.961,13.314 13.314,13.314c3.338,0 6.387,-1.231 8.724,-3.261c0.49,2.876 2.988,5.068 6.004,5.068c2.578,0 4.778,-1.603 5.669,-3.864c3.106,5.945 9.326,10.006 16.498,10.006c6.932,0 12.973,-3.793 16.175,-9.414c1.485,2.805 4.43,4.717 7.824,4.717c3.572,0 6.641,-2.12 8.04,-5.166c2.805,3.167 6.899,5.166 11.463,5.166c5.236,0 9.857,-2.631 12.617,-6.641c2.355,2.106 5.463,3.389 8.871,3.389c7.353,0 13.314,-5.961 13.314,-13.314c0,-7.353 -5.96,-13.314 -13.313,-13.314z"/>
    <line id="svg_6" stroke-miterlimit="10" stroke-linejoin="round" stroke-linecap="round" stroke-width="1.8364" stroke="#0274BD" fill="none" y2="78.181" x2="98.38302" y1="74.691" x1="98.38302"/>
    <line id="svg_7" stroke-miterlimit="10" stroke-linejoin="round" stroke-linecap="round" stroke-width="1.8364" stroke="#0274BD" fill="none" y2="81.332" x2="91.15102" y1="80.458" x1="89.66602"/>
    <path id="svg_8" stroke-miterlimit="10" stroke-linejoin="round" stroke-linecap="round" stroke-width="1.8364" stroke="#0274BD" fill="none" d="m101.59702,100.751c0.767,1.664 2.271,2.965 4.199,3.389c1.928,0.424 3.839,-0.126 5.233,-1.315"/>
    <path id="svg_9" stroke-miterlimit="10" stroke-linejoin="round" stroke-linecap="round" stroke-width="1.8364" stroke="#0274BD" fill="none" d="m172.83102,100.607c1.28,1.311 3.133,2.033 5.092,1.787c1.958,-0.247 3.574,-1.405 4.49,-2.993"/>
    <path id="svg_10" stroke-miterlimit="10" stroke-linejoin="round" stroke-linecap="round" stroke-width="1.8364" stroke="#0274BD" fill="none" d="m149.29402,69.233c-0.983,-1.547 -2.647,-2.635 -4.614,-2.797c-1.967,-0.162 -3.787,0.639 -5.01,2.003"/>
   </g>
  </g>
  <g id="svg_11">
   <path id="svg_12" stroke-miterlimit="10" stroke-linejoin="round" stroke-linecap="round" stroke-width="1.8364" stroke="#0274BD" fill="#0274BD" d="m281.53802,627.698c-2.066,0 -4.022,0.495 -5.774,1.376c0.474,-1.588 0.731,-3.278 0.731,-5.034c0,-9.15 -6.947,-16.567 -15.517,-16.567c-1.894,0 -3.709,0.364 -5.387,1.027c-0.138,-0.029 -0.277,-0.054 -0.415,-0.079c-2.26,-17.375 -16.222,-30.754 -33.118,-30.754c-18.472,0 -33.447,15.988 -33.447,35.709c0,2.61 0.27,5.152 0.768,7.604c-0.796,-0.499 -1.721,-0.787 -2.711,-0.787c-2.977,0 -5.39,2.576 -5.39,5.754c0,0.894 0.197,1.737 0.538,2.492c-1.348,-0.478 -2.788,-0.741 -4.287,-0.741c-7.506,0 -13.591,6.497 -13.591,14.511c0,8.014 6.085,14.511 13.591,14.511c3.408,0 6.52,-1.342 8.906,-3.555c0.5,3.135 3.05,5.524 6.129,5.524c2.632,0 4.877,-1.747 5.787,-4.212c3.171,6.48 9.521,10.906 16.842,10.906c7.076,0 13.244,-4.134 16.512,-10.26c1.516,3.057 4.522,5.141 7.987,5.141c3.646,0 6.78,-2.31 8.208,-5.63c2.863,3.452 7.043,5.63 11.702,5.63c5.346,0 10.062,-2.867 12.88,-7.238c2.404,2.296 5.577,3.693 9.056,3.693c7.506,0 13.591,-6.497 13.591,-14.511c0.001,-8.014 -6.084,-14.51 -13.591,-14.51z"/>
   <path id="svg_13" fill="#FFFFFF" d="m279.13602,627.189c-2.023,0 -3.939,0.454 -5.656,1.262c0.464,-1.457 0.717,-3.008 0.717,-4.618c0,-8.395 -6.805,-15.201 -15.201,-15.201c-1.855,0 -3.633,0.334 -5.277,0.942c-0.135,-0.026 -0.271,-0.049 -0.407,-0.073c-2.214,-15.941 -15.891,-28.217 -32.442,-28.217c-18.095,0 -32.763,14.669 -32.763,32.763c0,2.395 0.264,4.727 0.752,6.976c-0.78,-0.457 -1.686,-0.722 -2.656,-0.722c-2.916,0 -5.28,2.364 -5.28,5.28c0,0.82 0.193,1.594 0.526,2.287c-1.32,-0.439 -2.731,-0.68 -4.199,-0.68c-7.353,0 -13.314,5.961 -13.314,13.314c0,7.353 5.961,13.314 13.314,13.314c3.338,0 6.387,-1.232 8.724,-3.261c0.49,2.876 2.988,5.068 6.004,5.068c2.578,0 4.778,-1.603 5.669,-3.864c3.106,5.945 9.326,10.006 16.498,10.006c6.932,0 12.973,-3.793 16.175,-9.414c1.485,2.804 4.43,4.717 7.824,4.717c3.572,0 6.641,-2.12 8.04,-5.166c2.805,3.167 6.899,5.166 11.463,5.166c5.236,0 9.857,-2.63 12.617,-6.641c2.355,2.106 5.463,3.388 8.871,3.388c7.353,0 13.314,-5.961 13.314,-13.314c0.001,-7.352 -5.96,-13.312 -13.313,-13.312z"/>
   <path id="svg_14" stroke-miterlimit="10" stroke-linejoin="round" stroke-linecap="round" stroke-width="1.8364" stroke="#0274BD" fill="none" d="m279.13602,627.189c-2.023,0 -3.939,0.454 -5.656,1.262c0.464,-1.457 0.717,-3.008 0.717,-4.618c0,-8.395 -6.805,-15.201 -15.201,-15.201c-1.855,0 -3.633,0.334 -5.277,0.942c-0.135,-0.026 -0.271,-0.049 -0.407,-0.073c-2.214,-15.941 -15.891,-28.217 -32.442,-28.217c-18.095,0 -32.763,14.669 -32.763,32.763c0,2.395 0.264,4.727 0.752,6.976c-0.78,-0.457 -1.686,-0.722 -2.656,-0.722c-2.916,0 -5.28,2.364 -5.28,5.28c0,0.82 0.193,1.594 0.526,2.287c-1.32,-0.439 -2.731,-0.68 -4.199,-0.68c-7.353,0 -13.314,5.961 -13.314,13.314c0,7.353 5.961,13.314 13.314,13.314c3.338,0 6.387,-1.232 8.724,-3.261c0.49,2.876 2.988,5.068 6.004,5.068c2.578,0 4.778,-1.603 5.669,-3.864c3.106,5.945 9.326,10.006 16.498,10.006c6.932,0 12.973,-3.793 16.175,-9.414c1.485,2.804 4.43,4.717 7.824,4.717c3.572,0 6.641,-2.12 8.04,-5.166c2.805,3.167 6.899,5.166 11.463,5.166c5.236,0 9.857,-2.63 12.617,-6.641c2.355,2.106 5.463,3.388 8.871,3.388c7.353,0 13.314,-5.961 13.314,-13.314c0.001,-7.352 -5.96,-13.312 -13.313,-13.312z"/>
   <line id="svg_15" stroke-miterlimit="10" stroke-linejoin="round" stroke-linecap="round" stroke-width="1.8364" stroke="#0274BD" fill="none" y2="624.725" x2="190.16702" y1="621.024" x1="188.85902"/>
   <line id="svg_16" stroke-miterlimit="10" stroke-linejoin="round" stroke-linecap="round" stroke-width="1.8364" stroke="#0274BD" fill="none" y2="628.743" x2="182.93502" y1="627.868" x1="181.45002"/>
   <path id="svg_17" stroke-miterlimit="10" stroke-linejoin="round" stroke-linecap="round" stroke-width="1.8364" stroke="#0274BD" fill="none" d="m193.38102,648.162c0.767,1.664 2.271,2.965 4.199,3.389c1.928,0.424 3.839,-0.126 5.233,-1.315"/>
   <path id="svg_18" stroke-miterlimit="10" stroke-linejoin="round" stroke-linecap="round" stroke-width="1.8364" stroke="#0274BD" fill="none" d="m264.61502,648.017c1.28,1.311 3.133,2.033 5.092,1.786c1.958,-0.246 3.574,-1.405 4.49,-2.992"/>
   <path id="svg_19" stroke-miterlimit="10" stroke-linejoin="round" stroke-linecap="round" stroke-width="1.8364" stroke="#0274BD" fill="none" d="m255.96402,613.836c-0.442,-1.778 -1.676,-3.338 -3.49,-4.115c-1.814,-0.777 -3.794,-0.594 -5.387,0.312"/>
  </g>
  <g id="svg_20">
   <path id="svg_21" stroke-miterlimit="10" stroke-linejoin="round" stroke-linecap="round" stroke-width="1.8364" stroke="#0274BD" fill="#0274BD" d="m458.94902,61.994c-1.321,0 -2.633,0.157 -3.912,0.468c-0.894,-5.475 -5.543,-9.614 -11.034,-9.614c-0.181,0 -0.366,0.005 -0.553,0.015c-1.789,-11.324 -11.335,-19.752 -22.561,-19.752c-10.008,0 -18.81,6.701 -21.799,16.44c-1.535,-0.759 -3.22,-1.156 -4.938,-1.156c-6.3,0 -11.426,5.283 -11.426,11.777c0,0.648 0.052,1.295 0.155,1.933c-8.549,0.99 -15.098,8.449 -15.098,17.442c0,9.679 7.639,17.554 17.029,17.554c4.311,0 8.342,-1.623 11.485,-4.596c1.079,1.711 2.944,2.791 4.977,2.791c1.416,0 2.761,-0.514 3.822,-1.437c3.825,4.675 9.352,7.334 15.324,7.334c4.966,0 9.669,-1.855 13.35,-5.246c1.792,1.969 4.257,3.08 6.905,3.08c3.513,0 6.743,-2.043 8.377,-5.194c2.874,2.115 6.345,3.268 9.897,3.268c9.39,0 17.03,-7.875 17.03,-17.554s-7.64,-17.553 -17.03,-17.553z"/>
   <g id="svg_22">
    <path id="svg_23" fill="#FFFFFF" d="m458.03102,63.143c-1.635,0 -3.212,0.245 -4.699,0.698c-0.362,-5.346 -4.81,-9.571 -10.247,-9.571c-0.454,0 -0.9,0.033 -1.338,0.09c-1.337,-10.841 -10.573,-19.236 -21.776,-19.236c-10.199,0 -18.771,6.957 -21.235,16.383c-1.601,-0.986 -3.485,-1.556 -5.503,-1.556c-5.803,0 -10.507,4.704 -10.507,10.507c0,0.936 0.124,1.842 0.354,2.706c-8.52,0.424 -15.297,7.466 -15.297,16.091c0,8.898 7.213,16.111 16.111,16.111c4.63,0 8.8,-1.956 11.739,-5.082c0.694,1.94 2.544,3.331 4.723,3.331c1.572,0 2.974,-0.724 3.895,-1.855c3.497,4.602 9.026,7.575 15.252,7.575c5.232,0 9.971,-2.1 13.427,-5.501c1.567,2.062 4.039,3.4 6.829,3.4c3.671,0 6.795,-2.309 8.02,-5.551c2.786,2.301 6.358,3.683 10.253,3.683c8.898,0 16.111,-7.213 16.111,-16.111c-0.001,-8.899 -7.214,-16.112 -16.112,-16.112z"/>
    <path id="svg_24" stroke-miterlimit="10" stroke-linejoin="round" stroke-linecap="round" stroke-width="1.8364" stroke="#0274BD" fill="none" d="m458.03102,63.143c-1.635,0 -3.212,0.245 -4.699,0.698c-0.362,-5.346 -4.81,-9.571 -10.247,-9.571c-0.454,0 -0.9,0.033 -1.338,0.09c-1.337,-10.841 -10.573,-19.236 -21.776,-19.236c-10.199,0 -18.771,6.957 -21.235,16.383c-1.601,-0.986 -3.485,-1.556 -5.503,-1.556c-5.803,0 -10.507,4.704 -10.507,10.507c0,0.936 0.124,1.842 0.354,2.706c-8.52,0.424 -15.297,7.466 -15.297,16.091c0,8.898 7.213,16.111 16.111,16.111c4.63,0 8.8,-1.956 11.739,-5.082c0.694,1.94 2.544,3.331 4.723,3.331c1.572,0 2.974,-0.724 3.895,-1.855c3.497,4.602 9.026,7.575 15.252,7.575c5.232,0 9.971,-2.1 13.427,-5.501c1.567,2.062 4.039,3.4 6.829,3.4c3.671,0 6.795,-2.309 8.02,-5.551c2.786,2.301 6.358,3.683 10.253,3.683c8.898,0 16.111,-7.213 16.111,-16.111c-0.001,-8.899 -7.214,-16.112 -16.112,-16.112z"/>
    <path id="svg_25" stroke-miterlimit="10" stroke-linejoin="round" stroke-linecap="round" stroke-width="1.8364" stroke="#0274BD" fill="none" d="m442.52702,90.121c1.386,1.199 3.293,1.763 5.224,1.353c1.931,-0.41 3.444,-1.7 4.223,-3.359"/>
    <path id="svg_26" stroke-miterlimit="10" stroke-linejoin="round" stroke-linecap="round" stroke-width="1.8364" stroke="#0274BD" fill="none" d="m443.92802,59.124c-0.269,-1.813 -1.346,-3.484 -3.077,-4.432c-1.731,-0.948 -3.719,-0.957 -5.392,-0.208"/>
    <path id="svg_27" stroke-miterlimit="10" stroke-linejoin="round" stroke-linecap="round" stroke-width="1.8364" stroke="#0274BD" fill="none" d="m411.58102,58.598c-1.813,-0.266 -3.724,0.284 -5.132,1.667c-1.408,1.384 -1.99,3.285 -1.755,5.103"/>
    <path id="svg_28" stroke-miterlimit="10" stroke-linejoin="round" stroke-linecap="round" stroke-width="1.8364" stroke="#0274BD" fill="none" d="m404.79902,65.392c-0.794,-1.651 -2.319,-2.928 -4.253,-3.32c-1.934,-0.393 -3.836,0.189 -5.211,1.4"/>
    <path id="svg_29" stroke-miterlimit="10" stroke-linejoin="round" stroke-linecap="round" stroke-width="1.8364" stroke="#0274BD" fill="none" d="m391.96702,86.188c0.711,1.689 2.17,3.04 4.082,3.528c1.912,0.488 3.841,0.003 5.274,-1.139"/>
   </g>
  </g>
  <g id="svg_30">
   <path id="svg_31" stroke-miterlimit="10" stroke-linejoin="round" stroke-linecap="round" stroke-width="1.8364" stroke="#0274BD" fill="#0274BD" d="m645.64902,613.429c-1.321,0 -2.633,0.166 -3.912,0.494c-0.894,-5.779 -5.543,-10.148 -11.034,-10.148c-0.181,0 -0.366,0.005 -0.553,0.016c-1.789,-11.953 -11.335,-20.85 -22.561,-20.85c-10.008,0 -18.81,7.074 -21.799,17.353c-1.535,-0.801 -3.22,-1.22 -4.938,-1.22c-6.3,0 -11.426,5.577 -11.426,12.432c0,0.684 0.052,1.367 0.155,2.041c-8.549,1.045 -15.098,8.919 -15.098,18.412c0,10.217 7.639,18.529 17.029,18.529c4.311,0 8.342,-1.713 11.485,-4.852c1.079,1.806 2.944,2.947 4.977,2.947c1.416,0 2.761,-0.542 3.822,-1.517c3.825,4.934 9.352,7.742 15.324,7.742c4.966,0 9.669,-1.959 13.35,-5.538c1.792,2.079 4.257,3.251 6.905,3.251c3.513,0 6.743,-2.157 8.377,-5.482c2.874,2.233 6.345,3.45 9.897,3.45c9.39,0 17.03,-8.312 17.03,-18.529c0,-10.218 -7.64,-18.531 -17.03,-18.531z"/>
   <g id="svg_32">
    <path id="svg_33" fill="#FFFFFF" d="m644.73102,615.585c-1.635,0 -3.212,0.245 -4.699,0.698c-0.362,-5.346 -4.81,-9.571 -10.247,-9.571c-0.454,0 -0.9,0.033 -1.338,0.09c-1.337,-10.841 -10.573,-19.236 -21.776,-19.236c-10.199,0 -18.771,6.957 -21.235,16.383c-1.601,-0.986 -3.485,-1.556 -5.503,-1.556c-5.803,0 -10.507,4.704 -10.507,10.507c0,0.936 0.124,1.842 0.354,2.706c-8.52,0.424 -15.297,7.466 -15.297,16.091c0,8.898 7.213,16.111 16.111,16.111c4.63,0 8.8,-1.956 11.739,-5.082c0.694,1.94 2.544,3.331 4.723,3.331c1.572,0 2.974,-0.724 3.895,-1.855c3.497,4.602 9.026,7.575 15.252,7.575c5.232,0 9.971,-2.1 13.427,-5.501c1.567,2.062 4.039,3.4 6.829,3.4c3.671,0 6.795,-2.31 8.02,-5.551c2.786,2.301 6.358,3.683 10.253,3.683c8.898,0 16.111,-7.213 16.111,-16.111c-0.001,-8.899 -7.214,-16.112 -16.112,-16.112z"/>
    <path id="svg_34" stroke-miterlimit="10" stroke-linejoin="round" stroke-linecap="round" stroke-width="1.8364" stroke="#0274BD" fill="none" d="m644.73102,615.585c-1.635,0 -3.212,0.245 -4.699,0.698c-0.362,-5.346 -4.81,-9.571 -10.247,-9.571c-0.454,0 -0.9,0.033 -1.338,0.09c-1.337,-10.841 -10.573,-19.236 -21.776,-19.236c-10.199,0 -18.771,6.957 -21.235,16.383c-1.601,-0.986 -3.485,-1.556 -5.503,-1.556c-5.803,0 -10.507,4.704 -10.507,10.507c0,0.936 0.124,1.842 0.354,2.706c-8.52,0.424 -15.297,7.466 -15.297,16.091c0,8.898 7.213,16.111 16.111,16.111c4.63,0 8.8,-1.956 11.739,-5.082c0.694,1.94 2.544,3.331 4.723,3.331c1.572,0 2.974,-0.724 3.895,-1.855c3.497,4.602 9.026,7.575 15.252,7.575c5.232,0 9.971,-2.1 13.427,-5.501c1.567,2.062 4.039,3.4 6.829,3.4c3.671,0 6.795,-2.31 8.02,-5.551c2.786,2.301 6.358,3.683 10.253,3.683c8.898,0 16.111,-7.213 16.111,-16.111c-0.001,-8.899 -7.214,-16.112 -16.112,-16.112z"/>
    <path id="svg_35" stroke-miterlimit="10" stroke-linejoin="round" stroke-linecap="round" stroke-width="1.8364" stroke="#0274BD" fill="none" d="m629.22702,642.562c1.386,1.199 3.293,1.763 5.224,1.353c1.931,-0.41 3.444,-1.7 4.223,-3.359"/>
    <path id="svg_36" stroke-miterlimit="10" stroke-linejoin="round" stroke-linecap="round" stroke-width="1.8364" stroke="#0274BD" fill="none" d="m630.62702,611.565c-0.269,-1.813 -1.346,-3.484 -3.077,-4.432c-1.731,-0.948 -3.72,-0.957 -5.392,-0.208"/>
    <path id="svg_37" stroke-miterlimit="10" stroke-linejoin="round" stroke-linecap="round" stroke-width="1.8364" stroke="#0274BD" fill="none" d="m598.28102,611.039c-1.813,-0.266 -3.724,0.284 -5.132,1.668c-1.408,1.384 -1.99,3.285 -1.755,5.102"/>
    <path id="svg_38" stroke-miterlimit="10" stroke-linejoin="round" stroke-linecap="round" stroke-width="1.8364" stroke="#0274BD" fill="none" d="m591.49902,617.834c-0.794,-1.652 -2.319,-2.928 -4.253,-3.32c-1.934,-0.393 -3.836,0.189 -5.211,1.4"/>
    <path id="svg_39" stroke-miterlimit="10" stroke-linejoin="round" stroke-linecap="round" stroke-width="1.8364" stroke="#0274BD" fill="none" d="m578.66602,638.629c0.711,1.689 2.17,3.04 4.082,3.528c1.913,0.488 3.841,0.003 5.274,-1.139"/>
   </g>
  </g>
  <g id="svg_40">
   <path id="svg_41" stroke-miterlimit="10" stroke-linejoin="round" stroke-linecap="round" stroke-width="1.8364" stroke="#0274BD" fill="#0274BD" d="m678.22702,63.9c-0.559,0 -1.117,0.05 -1.671,0.149c-0.13,-4.21 -3.403,-7.591 -7.406,-7.591c-0.256,0 -0.51,0.014 -0.762,0.041c0.5,-1.754 0.753,-3.573 0.753,-5.431c0,-10.379 -7.968,-18.824 -17.763,-18.824c-1.882,0 -3.721,0.307 -5.486,0.916c-1.549,-12.053 -11.386,-21.282 -23.013,-21.282c-10.961,0 -20.32,8.099 -22.664,19.21c-3.308,-3.474 -7.74,-5.425 -12.475,-5.425c-9.538,0 -17.345,8.007 -17.747,18.012c-0.795,-0.303 -1.637,-0.459 -2.497,-0.459c-4.086,0 -7.41,3.523 -7.41,7.853c0,0.734 0.099,1.463 0.29,2.164c-0.049,-0.001 -0.098,-0.001 -0.147,-0.001c-9.794,0 -17.763,8.444 -17.763,18.824s7.969,18.824 17.763,18.824c4.406,0 8.646,-1.746 11.893,-4.846c1.188,2.712 3.768,4.528 6.712,4.528c2.106,0 4.096,-0.96 5.486,-2.582c4.171,5.427 10.454,8.624 17.095,8.624c6.388,0 12.49,-2.984 16.655,-8.066c1.825,3.175 5.128,5.204 8.702,5.204c4.13,0 7.769,-2.61 9.351,-6.528c3.04,2.375 6.721,3.666 10.529,3.666c4.886,0 9.45,-2.078 12.789,-5.763c1.264,2.494 3.726,4.108 6.516,4.108c3.202,0 5.991,-2.212 7.001,-5.3c1.582,1.017 3.401,1.564 5.267,1.564c5.617,0 10.187,-4.842 10.187,-10.794c0.001,-5.952 -4.568,-10.795 -10.185,-10.795z"/>
   <g id="svg_42">
    <path id="svg_43" fill="#FFFFFF" d="m677.11802,64.586c-1.013,0 -1.983,0.173 -2.893,0.479c0.075,-0.389 0.117,-0.789 0.117,-1.2c0,-3.48 -2.821,-6.302 -6.302,-6.302c-0.904,0 -1.761,0.194 -2.538,0.536c0.911,-2.059 1.421,-4.335 1.421,-6.731c0,-9.198 -7.457,-16.654 -16.655,-16.654c-2.283,0 -4.458,0.46 -6.44,1.292c-0.827,-11.465 -10.383,-20.511 -22.058,-20.511c-11.325,0 -20.656,8.511 -21.961,19.484c-3.046,-3.938 -7.814,-6.476 -13.178,-6.476c-9.198,0 -16.655,7.456 -16.655,16.654c0,0.357 0.015,0.711 0.037,1.062c-1.026,-0.724 -2.275,-1.153 -3.626,-1.153c-3.48,0 -6.302,2.821 -6.302,6.302c0,1.195 0.339,2.308 0.916,3.259c-0.618,-0.069 -1.245,-0.109 -1.881,-0.109c-9.198,0 -16.655,7.456 -16.655,16.655s7.456,16.655 16.655,16.655c4.926,0 9.35,-2.14 12.4,-5.539c0.506,2.973 3.088,5.239 6.205,5.239c2.344,0 4.385,-1.283 5.47,-3.182c3.789,5.371 10.038,8.883 17.111,8.883c6.929,0 13.069,-3.369 16.879,-8.557c1.301,3.421 4.601,5.856 8.478,5.856c4.268,0 7.838,-2.949 8.808,-6.918c2.943,2.622 6.82,4.218 11.072,4.218c5.357,0 10.119,-2.532 13.166,-6.461c0.639,2.804 3.142,4.899 6.14,4.899c3.31,0 6.018,-2.553 6.276,-5.797c1.599,1.409 3.693,2.271 5.992,2.271c5.013,0 9.077,-4.064 9.077,-9.077c0.002,-5.013 -4.062,-9.077 -9.076,-9.077z"/>
    <path id="svg_44" stroke-miterlimit="10" stroke-linejoin="round" stroke-linecap="round" stroke-width="1.8364" stroke="#0274BD" fill="none" d="m677.11802,64.586c-1.013,0 -1.983,0.173 -2.893,0.479c0.075,-0.389 0.117,-0.789 0.117,-1.2c0,-3.48 -2.821,-6.302 -6.302,-6.302c-0.904,0 -1.761,0.194 -2.538,0.536c0.911,-2.059 1.421,-4.335 1.421,-6.731c0,-9.198 -7.457,-16.654 -16.655,-16.654c-2.283,0 -4.458,0.46 -6.44,1.292c-0.827,-11.465 -10.383,-20.511 -22.058,-20.511c-11.325,0 -20.656,8.511 -21.961,19.484c-3.046,-3.938 -7.814,-6.476 -13.178,-6.476c-9.198,0 -16.655,7.456 -16.655,16.654c0,0.357 0.015,0.711 0.037,1.062c-1.026,-0.724 -2.275,-1.153 -3.626,-1.153c-3.48,0 -6.302,2.821 -6.302,6.302c0,1.195 0.339,2.308 0.916,3.259c-0.618,-0.069 -1.245,-0.109 -1.881,-0.109c-9.198,0 -16.655,7.456 -16.655,16.655s7.456,16.655 16.655,16.655c4.926,0 9.35,-2.14 12.4,-5.539c0.506,2.973 3.088,5.239 6.205,5.239c2.344,0 4.385,-1.283 5.47,-3.182c3.789,5.371 10.038,8.883 17.111,8.883c6.929,0 13.069,-3.369 16.879,-8.557c1.301,3.421 4.601,5.856 8.478,5.856c4.268,0 7.838,-2.949 8.808,-6.918c2.943,2.622 6.82,4.218 11.072,4.218c5.357,0 10.119,-2.532 13.166,-6.461c0.639,2.804 3.142,4.899 6.14,4.899c3.31,0 6.018,-2.553 6.276,-5.797c1.599,1.409 3.693,2.271 5.992,2.271c5.013,0 9.077,-4.064 9.077,-9.077c0.002,-5.013 -4.062,-9.077 -9.076,-9.077z"/>
    <path id="svg_45" stroke-miterlimit="10" stroke-linejoin="round" stroke-linecap="round" stroke-width="1.8364" stroke="#0274BD" fill="none" d="m611.23602,80.291c1.105,1.917 3.056,3.317 5.42,3.615c2.365,0.298 4.602,-0.573 6.148,-2.155"/>
    <path id="svg_46" stroke-miterlimit="10" stroke-linejoin="round" stroke-linecap="round" stroke-width="1.8364" stroke="#0274BD" fill="none" d="m647.66302,41.132c-0.664,-2.11 -2.267,-3.899 -4.511,-4.701c-2.244,-0.802 -4.617,-0.435 -6.469,0.775"/>
    <path id="svg_47" stroke-miterlimit="10" stroke-linejoin="round" stroke-linecap="round" stroke-width="1.8364" stroke="#0274BD" fill="none" d="m594.87602,62.553c-1.196,-1.862 -3.212,-3.166 -5.588,-3.35c-2.376,-0.184 -4.569,0.794 -6.038,2.449"/>
    <path id="svg_48" stroke-miterlimit="10" stroke-linejoin="round" stroke-linecap="round" stroke-width="1.8364" stroke="#0274BD" fill="none" d="m600.86402,52.2c-2.185,-0.349 -4.501,0.286 -6.221,1.935c-1.721,1.649 -2.453,3.936 -2.197,6.134"/>
   </g>
  </g>
  <g id="svg_49">
   <path id="svg_50" stroke-miterlimit="10" stroke-linejoin="round" stroke-linecap="round" stroke-width="1.8364" stroke="#0274BD" fill="#0274BD" d="m196.55702,453.313c-2.912,0 -5.7,0.816 -8.153,2.373c-0.985,-8.563 -8.035,-15.271 -16.427,-15.271c-2.712,0 -5.367,0.693 -7.745,2.016c-1.378,-3.532 -4.68,-5.908 -8.396,-5.908c-1.701,0 -3.357,0.503 -4.789,1.439c-3.007,-13.659 -14.619,-23.417 -28.15,-23.417c-15.936,0 -28.901,13.578 -28.901,30.267c0,1.183 0.069,2.381 0.207,3.581c-0.569,-0.177 -1.162,-0.269 -1.766,-0.269c-3.324,0 -6.043,2.77 -6.161,6.222c-1.753,-0.686 -3.596,-1.032 -5.499,-1.032c-8.703,0 -15.784,7.415 -15.784,16.53c0,9.115 7.081,16.53 15.784,16.53c2.723,0 5.374,-0.729 7.729,-2.118c1.565,3.089 4.602,5.031 8.005,5.031c2.282,0 4.428,-0.88 6.085,-2.458c4.238,11.752 14.912,19.536 27.029,19.536c9.17,0 17.722,-4.525 23.173,-12.183c1.641,2.743 4.513,4.444 7.684,4.444c3.268,0 6.212,-1.802 7.825,-4.691c3.054,2.996 7.11,4.691 11.321,4.691c7.333,0 13.736,-5.014 15.838,-12.294c0.371,0.028 0.736,0.042 1.091,0.042c8.703,0 15.784,-7.415 15.784,-16.53c0,-9.116 -7.081,-16.531 -15.784,-16.531z"/>
   <g id="svg_51">
    <path id="svg_52" fill="#FFFFFF" d="m195.63802,454.691c-3.364,0 -6.466,1.119 -8.957,3.002c-0.168,-8.488 -7.096,-15.318 -15.623,-15.318c-3.033,0 -5.862,0.866 -8.258,2.361c-0.922,-3.496 -4.097,-6.078 -7.883,-6.078c-2.073,0 -3.96,0.779 -5.4,2.053c-2.336,-13.096 -13.772,-23.04 -27.539,-23.04c-15.455,0 -27.983,12.528 -27.983,27.983c0,1.698 0.16,3.358 0.45,4.973c-0.836,-0.563 -1.843,-0.892 -2.927,-0.892c-2.898,0 -5.247,2.349 -5.247,5.247c0,0.427 0.056,0.839 0.153,1.236c-1.98,-0.977 -4.208,-1.528 -6.565,-1.528c-8.21,0 -14.866,6.656 -14.866,14.866s6.656,14.866 14.866,14.866c3.003,0 5.796,-0.893 8.133,-2.424c1.185,3.045 4.137,5.206 7.601,5.206c2.627,0 4.957,-1.246 6.45,-3.173c3.599,11.297 14.174,19.481 26.664,19.481c9.721,0 18.281,-4.959 23.297,-12.483c1.213,2.986 4.139,5.093 7.56,5.093c3.434,0 6.367,-2.123 7.572,-5.126c2.86,3.149 6.986,5.126 11.574,5.126c7.314,0 13.452,-5.023 15.158,-11.808c0.581,0.069 1.171,0.109 1.77,0.109c8.21,0 14.866,-6.656 14.866,-14.866s-6.655,-14.866 -14.866,-14.866z"/>
    <path id="svg_53" stroke-miterlimit="10" stroke-linejoin="round" stroke-linecap="round" stroke-width="1.8364" stroke="#0274BD" fill="none" d="m195.63802,454.691c-3.364,0 -6.466,1.119 -8.957,3.002c-0.168,-8.488 -7.096,-15.318 -15.623,-15.318c-3.033,0 -5.862,0.866 -8.258,2.361c-0.922,-3.496 -4.097,-6.078 -7.883,-6.078c-2.073,0 -3.96,0.779 -5.4,2.053c-2.336,-13.096 -13.772,-23.04 -27.539,-23.04c-15.455,0 -27.983,12.528 -27.983,27.983c0,1.698 0.16,3.358 0.45,4.973c-0.836,-0.563 -1.843,-0.892 -2.927,-0.892c-2.898,0 -5.247,2.349 -5.247,5.247c0,0.427 0.056,0.839 0.153,1.236c-1.98,-0.977 -4.208,-1.528 -6.565,-1.528c-8.21,0 -14.866,6.656 -14.866,14.866s6.656,14.866 14.866,14.866c3.003,0 5.796,-0.893 8.133,-2.424c1.185,3.045 4.137,5.206 7.601,5.206c2.627,0 4.957,-1.246 6.45,-3.173c3.599,11.297 14.174,19.481 26.664,19.481c9.721,0 18.281,-4.959 23.297,-12.483c1.213,2.986 4.139,5.093 7.56,5.093c3.434,0 6.367,-2.123 7.572,-5.126c2.86,3.149 6.986,5.126 11.574,5.126c7.314,0 13.452,-5.023 15.158,-11.808c0.581,0.069 1.171,0.109 1.77,0.109c8.21,0 14.866,-6.656 14.866,-14.866s-6.655,-14.866 -14.866,-14.866z"/>
    <path id="svg_54" stroke-miterlimit="10" stroke-linejoin="round" stroke-linecap="round" stroke-width="1.8364" stroke="#0274BD" fill="none" d="m98.90602,479.726c0.358,1.797 1.516,3.413 3.292,4.275c1.776,0.862 3.762,0.773 5.396,-0.058"/>
    <path id="svg_55" stroke-miterlimit="10" stroke-linejoin="round" stroke-linecap="round" stroke-width="1.8364" stroke="#0274BD" fill="none" d="m189.32802,461.913c-0.45,-1.776 -1.69,-3.331 -3.508,-4.1c-1.818,-0.769 -3.797,-0.578 -5.385,0.336"/>
    <path id="svg_56" stroke-miterlimit="10" stroke-linejoin="round" stroke-linecap="round" stroke-width="1.8364" stroke="#0274BD" fill="none" d="m151.62602,487.089c0,0 0.624,2.082 0.378,3.941"/>
    <line id="svg_57" stroke-miterlimit="10" stroke-linejoin="round" stroke-linecap="round" stroke-width="1.8364" stroke="#0274BD" fill="none" y2="443.723" x2="149.51702" y1="440.712" x1="149.51702"/>
    <path id="svg_58" stroke-miterlimit="10" stroke-linejoin="round" stroke-linecap="round" stroke-width="1.8364" stroke="#0274BD" fill="none" d="m94.44502,450.628c0,0 0.643,7.199 4.461,11.285"/>
   </g>
  </g>
  <g id="svg_59">
   <path id="svg_60" stroke-miterlimit="10" stroke-linejoin="round" stroke-linecap="round" stroke-width="1.8364" stroke="#0274BD" fill="#0274BD" d="m371.37302,185.404c-2.26,0.105 -4.391,0.691 -6.311,1.661c0.085,-0.442 0.126,-0.9 0.104,-1.372c-0.141,-3.021 -2.553,-5.364 -5.388,-5.232c-1.925,0.089 -3.547,1.298 -4.348,3.009c-4.788,-5.093 -11.481,-8.119 -18.749,-7.78c-5.054,0.235 -9.678,2.067 -13.471,5.014c0.013,-0.297 0.015,-0.597 0.001,-0.9c-0.24,-5.164 -4.363,-9.168 -9.209,-8.943c-1.957,0.091 -3.727,0.867 -5.133,2.089c0.045,-0.446 0.068,-0.899 0.046,-1.361c-0.223,-4.787 -4.044,-8.498 -8.536,-8.289c-3.065,0.143 -5.647,2.076 -6.909,4.809c-4.363,-5.671 -11.087,-9.165 -18.468,-8.821c-10.428,0.485 -18.84,8.474 -20.881,18.863c-1.687,-0.998 -3.642,-1.53 -5.706,-1.434c-5.933,0.276 -10.505,5.626 -10.211,11.95c0.047,1.02 0.22,2.002 0.499,2.932c-8.69,0.867 -15.262,8.863 -14.825,18.262c0.451,9.696 8.192,17.214 17.29,16.791c4.734,-0.22 8.899,-2.55 11.745,-6.097c0.808,2.081 2.77,3.509 4.998,3.405c2.454,-0.114 4.418,-2.047 4.811,-4.525c4.83,6.182 12.212,9.98 20.31,9.603c7.408,-0.345 13.893,-4.115 18.187,-9.81c1.266,3.799 4.744,6.448 8.709,6.264c4.106,-0.191 7.403,-3.361 8.171,-7.465c4.796,6.761 12.525,10.987 21.045,10.59c9.101,-0.423 16.811,-6.015 20.772,-13.999c3.205,3.821 7.928,6.139 13.091,5.899c9.098,-0.423 16.107,-8.627 15.656,-18.324c-0.451,-9.695 -8.192,-17.213 -17.29,-16.789z"/>
   <path id="svg_61" fill="#FFFFFF" d="m369.65102,185.24c-2.208,0.103 -4.291,0.646 -6.17,1.54c0.084,-0.405 0.126,-0.825 0.105,-1.258c-0.129,-2.77 -2.478,-4.91 -5.248,-4.781c-1.88,0.087 -3.468,1.2 -4.255,2.771c-4.663,-4.656 -11.192,-7.411 -18.293,-7.081c-4.938,0.23 -9.459,1.922 -13.173,4.634c0.013,-0.272 0.016,-0.547 0.003,-0.825c-0.22,-4.734 -4.237,-8.393 -8.971,-8.173c-1.912,0.089 -3.643,0.805 -5.02,1.93c0.045,-0.409 0.069,-0.824 0.049,-1.248c-0.204,-4.388 -3.927,-7.78 -8.315,-7.575c-2.994,0.139 -5.522,1.919 -6.763,4.428c-4.246,-5.187 -10.805,-8.371 -18.015,-8.036c-10.188,0.474 -18.427,7.822 -20.451,17.352c-1.645,-0.911 -3.553,-1.392 -5.569,-1.299c-5.797,0.27 -10.277,5.188 -10.008,10.984c0.044,0.935 0.209,1.835 0.479,2.686c-8.491,0.819 -14.934,8.169 -14.533,16.784c0.414,8.888 7.954,15.758 16.843,15.345c4.624,-0.215 8.7,-2.362 11.49,-5.622c0.784,1.906 2.696,3.209 4.872,3.108c2.398,-0.112 4.322,-1.889 4.712,-4.161c4.701,5.654 11.902,9.115 19.813,8.747c7.237,-0.337 13.582,-3.812 17.793,-9.045c1.226,3.479 4.616,5.898 8.49,5.718c4.011,-0.187 7.241,-3.102 8.003,-6.867c4.666,6.185 12.204,10.037 20.527,9.65c8.891,-0.414 16.438,-5.561 20.33,-12.892c3.12,3.494 7.728,5.606 12.771,5.371c8.888,-0.413 15.759,-7.954 15.345,-16.842c-0.412,-8.886 -7.953,-15.756 -16.841,-15.343z"/>
   <path id="svg_62" stroke-miterlimit="10" stroke-linejoin="round" stroke-linecap="round" stroke-width="1.8364" stroke="#0274BD" fill="none" d="m369.65102,185.24c-2.208,0.103 -4.291,0.646 -6.17,1.54c0.084,-0.405 0.126,-0.825 0.105,-1.258c-0.129,-2.77 -2.478,-4.91 -5.248,-4.781c-1.88,0.087 -3.468,1.2 -4.255,2.771c-4.663,-4.656 -11.192,-7.411 -18.293,-7.081c-4.938,0.23 -9.459,1.922 -13.173,4.634c0.013,-0.272 0.016,-0.547 0.003,-0.825c-0.22,-4.734 -4.237,-8.393 -8.971,-8.173c-1.912,0.089 -3.643,0.805 -5.02,1.93c0.045,-0.409 0.069,-0.824 0.049,-1.248c-0.204,-4.388 -3.927,-7.78 -8.315,-7.575c-2.994,0.139 -5.522,1.919 -6.763,4.428c-4.246,-5.187 -10.805,-8.371 -18.015,-8.036c-10.188,0.474 -18.427,7.822 -20.451,17.352c-1.645,-0.911 -3.553,-1.392 -5.569,-1.299c-5.797,0.27 -10.277,5.188 -10.008,10.984c0.044,0.935 0.209,1.835 0.479,2.686c-8.491,0.819 -14.934,8.169 -14.533,16.784c0.414,8.888 7.954,15.758 16.843,15.345c4.624,-0.215 8.7,-2.362 11.49,-5.622c0.784,1.906 2.696,3.209 4.872,3.108c2.398,-0.112 4.322,-1.889 4.712,-4.161c4.701,5.654 11.902,9.115 19.813,8.747c7.237,-0.337 13.582,-3.812 17.793,-9.045c1.226,3.479 4.616,5.898 8.49,5.718c4.011,-0.187 7.241,-3.102 8.003,-6.867c4.666,6.185 12.204,10.037 20.527,9.65c8.891,-0.414 16.438,-5.561 20.33,-12.892c3.12,3.494 7.728,5.606 12.771,5.371c8.888,-0.413 15.759,-7.954 15.345,-16.842c-0.412,-8.886 -7.953,-15.756 -16.841,-15.343z"/>
   <path id="svg_63" stroke-miterlimit="10" stroke-linejoin="round" stroke-linecap="round" stroke-width="1.8364" stroke="#0274BD" fill="none" d="m260.78902,179.889c-1.588,-0.914 -3.567,-1.107 -5.385,-0.338c-1.818,0.769 -3.059,2.322 -3.51,4.099"/>
   <path id="svg_64" stroke-miterlimit="10" stroke-linejoin="round" stroke-linecap="round" stroke-width="1.8364" stroke="#0274BD" fill="none" d="m325.56902,185.533c-0.522,-1.757 -1.824,-3.259 -3.672,-3.954c-1.848,-0.695 -3.817,-0.423 -5.367,0.555"/>
   <path id="svg_65" stroke-miterlimit="10" stroke-linejoin="round" stroke-linecap="round" stroke-width="1.8364" stroke="#0274BD" fill="none" d="m259.54402,213.226c0.993,1.54 2.665,2.617 4.633,2.765c1.968,0.149 3.783,-0.665 4.996,-2.038"/>
   <path id="svg_66" stroke-miterlimit="10" stroke-linejoin="round" stroke-linecap="round" stroke-width="1.8364" stroke="#0274BD" fill="none" d="m288.72602,197.461c-0.88,-1.607 -2.47,-2.802 -4.422,-3.092c-1.952,-0.29 -3.821,0.391 -5.13,1.673"/>
   <path id="svg_67" stroke-miterlimit="10" stroke-linejoin="round" stroke-linecap="round" stroke-width="1.8364" stroke="#0274BD" fill="none" d="m295.07002,189.725c-1.816,-0.241 -3.72,0.334 -5.109,1.737c-1.389,1.403 -1.945,3.312 -1.686,5.126"/>
   <path id="svg_68" stroke-miterlimit="10" stroke-linejoin="round" stroke-linecap="round" stroke-width="1.8364" stroke="#0274BD" fill="none" d="m353.16102,210.896c1.482,1.078 3.43,1.479 5.319,0.908c1.889,-0.571 3.288,-1.984 3.925,-3.702"/>
  </g>
  <g id="svg_69">
   <path id="svg_70" stroke-miterlimit="10" stroke-linejoin="round" stroke-linecap="round" stroke-width="1.8364" stroke="#0274BD" fill="#0274BD" d="m512.26102,218.085c1.082,0 2.138,0.108 3.165,0.306c0,-0.019 -0.003,-0.038 -0.003,-0.057c0,-5.844 4.532,-10.582 10.123,-10.582c0.414,0 0.821,0.034 1.222,0.084c-1.074,-3.23 -1.666,-6.697 -1.666,-10.309c0,-17.335 13.444,-31.389 30.028,-31.389c16.188,0 29.376,13.391 29.998,30.152c0.205,-0.014 0.409,-0.033 0.618,-0.033c5.368,0 9.72,4.549 9.72,10.161c0,2.154 -0.646,4.149 -1.74,5.793c1.641,-0.441 3.361,-0.676 5.133,-0.676c11.341,0 20.535,9.611 20.535,21.466c0,11.855 -9.194,21.466 -20.535,21.466c-4.61,0 -8.865,-1.588 -12.292,-4.268c0.007,0.15 0.022,0.298 0.022,0.45c0,5.023 -3.896,9.096 -8.701,9.096c-2.202,0 -4.206,-0.862 -5.739,-2.271c-5.231,9.161 -14.805,15.3 -25.753,15.3c-12.571,0 -23.328,-8.093 -27.78,-19.564c-1.97,0.809 -4.113,1.258 -6.357,1.258c-9.611,0 -17.403,-8.145 -17.403,-18.191s7.793,-18.192 17.405,-18.192z"/>
   <g id="svg_71">
    <path id="svg_72" fill="#FFFFFF" d="m511.78702,217.965c1.052,0 2.08,0.101 3.079,0.285c0,-0.018 -0.003,-0.035 -0.003,-0.053c0,-5.439 4.409,-9.848 9.848,-9.848c0.403,0 0.798,0.031 1.188,0.079c-1.045,-3.006 -1.62,-6.232 -1.62,-9.594c0,-16.133 13.078,-29.211 29.211,-29.211c15.747,0 28.577,12.462 29.182,28.06c0.2,-0.013 0.398,-0.03 0.601,-0.03c5.222,0 9.456,4.234 9.456,9.456c0,2.005 -0.628,3.861 -1.693,5.391c1.596,-0.411 3.269,-0.629 4.994,-0.629c11.033,0 19.977,8.944 19.977,19.977c0,11.033 -8.944,19.977 -19.977,19.977c-4.484,0 -8.623,-1.478 -11.957,-3.972c0.007,0.14 0.021,0.278 0.021,0.419c0,4.675 -3.79,8.465 -8.465,8.465c-2.142,0 -4.092,-0.802 -5.583,-2.113c-5.089,8.526 -14.402,14.238 -25.052,14.238c-12.229,0 -22.694,-7.532 -27.024,-18.207c-1.916,0.753 -4.001,1.17 -6.184,1.17c-9.35,0 -16.929,-7.579 -16.929,-16.929c0.001,-9.352 7.58,-16.931 16.93,-16.931z"/>
    <path id="svg_73" stroke-miterlimit="10" stroke-linejoin="round" stroke-linecap="round" stroke-width="1.8364" stroke="#0274BD" fill="none" d="m511.78702,217.965c1.052,0 2.08,0.101 3.079,0.285c0,-0.018 -0.003,-0.035 -0.003,-0.053c0,-5.439 4.409,-9.848 9.848,-9.848c0.403,0 0.798,0.031 1.188,0.079c-1.045,-3.006 -1.62,-6.232 -1.62,-9.594c0,-16.133 13.078,-29.211 29.211,-29.211c15.747,0 28.577,12.462 29.182,28.06c0.2,-0.013 0.398,-0.03 0.601,-0.03c5.222,0 9.456,4.234 9.456,9.456c0,2.005 -0.628,3.861 -1.693,5.391c1.596,-0.411 3.269,-0.629 4.994,-0.629c11.033,0 19.977,8.944 19.977,19.977c0,11.033 -8.944,19.977 -19.977,19.977c-4.484,0 -8.623,-1.478 -11.957,-3.972c0.007,0.14 0.021,0.278 0.021,0.419c0,4.675 -3.79,8.465 -8.465,8.465c-2.142,0 -4.092,-0.802 -5.583,-2.113c-5.089,8.526 -14.402,14.238 -25.052,14.238c-12.229,0 -22.694,-7.532 -27.024,-18.207c-1.916,0.753 -4.001,1.17 -6.184,1.17c-9.35,0 -16.929,-7.579 -16.929,-16.929c0.001,-9.352 7.58,-16.931 16.93,-16.931z"/>
   </g>
   <path id="svg_74" stroke-miterlimit="10" stroke-linejoin="round" stroke-linecap="round" stroke-width="1.8364" stroke="#0274BD" fill="none" d="m592.03602,215.704c-0.44,-1.779 -1.671,-3.34 -3.484,-4.12s-3.793,-0.6 -5.387,0.305"/>
   <path id="svg_75" stroke-miterlimit="10" stroke-linejoin="round" stroke-linecap="round" stroke-width="1.8364" stroke="#0274BD" fill="none" d="m514.22502,245.19c0.16,1.826 1.136,3.558 2.807,4.608c1.671,1.05 3.656,1.178 5.37,0.53"/>
   <path id="svg_76" stroke-miterlimit="10" stroke-linejoin="round" stroke-linecap="round" stroke-width="1.8364" stroke="#0274BD" fill="none" d="m536.64402,219.456c-0.668,-1.707 -2.092,-3.094 -3.992,-3.631c-1.899,-0.537 -3.839,-0.1 -5.301,1.004"/>
   <path id="svg_77" stroke-miterlimit="10" stroke-linejoin="round" stroke-linecap="round" stroke-width="1.8364" stroke="#0274BD" fill="none" d="m543.61802,212.116c-1.784,-0.42 -3.735,-0.036 -5.255,1.223c-1.521,1.258 -2.263,3.103 -2.185,4.934"/>
   <path id="svg_78" stroke-miterlimit="10" stroke-linejoin="round" stroke-linecap="round" stroke-width="1.8364" stroke="#0274BD" fill="none" d="m578.53602,246.157c1.477,1.084 3.423,1.494 5.315,0.932c1.892,-0.563 3.297,-1.97 3.941,-3.685"/>
  </g>
  <g id="svg_79">
   <path id="svg_80" stroke-miterlimit="10" stroke-linejoin="round" stroke-linecap="round" stroke-width="1.8364" stroke="#0274BD" fill="#0274BD" d="m428.54502,358.896c-2.084,0 -4.096,0.297 -6.014,0.823c0.645,-2.885 0.996,-5.882 0.996,-8.963c0,-22.444 -18.047,-40.638 -40.31,-40.638c-19.276,0 -35.382,13.644 -39.359,31.873c-2.177,-1.251 -4.682,-1.989 -7.367,-1.989c-8.244,0 -14.927,6.737 -14.927,15.048c0,1.34 0.176,2.639 0.502,3.875c-12.103,0.607 -21.732,10.692 -21.732,23.045c0,12.744 10.247,23.074 22.888,23.074c6.577,0 12.502,-2.801 16.677,-7.279c0.986,2.779 3.613,4.771 6.709,4.771c2.233,0 4.225,-1.036 5.533,-2.656c4.968,6.591 12.823,10.849 21.668,10.849c7.432,0 14.165,-3.008 19.075,-7.879c2.227,2.954 5.738,4.869 9.701,4.869c5.215,0 9.653,-3.308 11.394,-7.951c3.958,3.295 9.033,5.275 14.566,5.275c12.641,0 22.888,-10.331 22.888,-23.074c0.001,-12.742 -10.247,-23.073 -22.888,-23.073z"/>
   <path id="svg_81" fill="#FFFFFF" d="m426.65202,358.028c-1.971,0 -3.874,0.279 -5.688,0.772c0.61,-2.706 0.942,-5.518 0.942,-8.408c0,-21.054 -17.068,-38.122 -38.122,-38.122c-18.23,0 -33.462,12.799 -37.223,29.899c-2.059,-1.174 -4.427,-1.866 -6.967,-1.866c-7.797,0 -14.117,6.32 -14.117,14.117c0,1.257 0.167,2.475 0.475,3.635c-11.447,0.57 -20.552,10.03 -20.552,21.618c0,11.955 9.691,21.646 21.646,21.646c6.22,0 11.823,-2.628 15.771,-6.828c0.933,2.607 3.417,4.475 6.345,4.475c2.112,0 3.996,-0.972 5.233,-2.492c4.698,6.183 12.127,10.178 20.491,10.178c7.029,0 13.397,-2.822 18.039,-7.391c2.106,2.771 5.426,4.568 9.175,4.568c4.932,0 9.129,-3.103 10.775,-7.458c3.743,3.091 8.542,4.949 13.776,4.949c11.955,0 21.646,-9.691 21.646,-21.646c0,-11.955 -9.691,-21.646 -21.645,-21.646z"/>
   <path id="svg_82" stroke-miterlimit="10" stroke-linejoin="round" stroke-linecap="round" stroke-width="1.735" stroke="#0274BD" fill="none" d="m426.65202,358.028c-1.971,0 -3.874,0.279 -5.688,0.772c0.61,-2.706 0.942,-5.518 0.942,-8.408c0,-21.054 -17.068,-38.122 -38.122,-38.122c-18.23,0 -33.462,12.799 -37.223,29.899c-2.059,-1.174 -4.427,-1.866 -6.967,-1.866c-7.797,0 -14.117,6.32 -14.117,14.117c0,1.257 0.167,2.475 0.475,3.635c-11.447,0.57 -20.552,10.03 -20.552,21.618c0,11.955 9.691,21.646 21.646,21.646c6.22,0 11.823,-2.628 15.771,-6.828c0.933,2.607 3.417,4.475 6.345,4.475c2.112,0 3.996,-0.972 5.233,-2.492c4.698,6.183 12.127,10.178 20.491,10.178c7.029,0 13.397,-2.822 18.039,-7.391c2.106,2.771 5.426,4.568 9.175,4.568c4.932,0 9.129,-3.103 10.775,-7.458c3.743,3.091 8.542,4.949 13.776,4.949c11.955,0 21.646,-9.691 21.646,-21.646c0,-11.955 -9.691,-21.646 -21.645,-21.646z"/>
   <path id="svg_83" stroke-miterlimit="10" stroke-linejoin="round" stroke-linecap="round" stroke-width="1.735" stroke="#0274BD" fill="none" d="m388.22802,396.07c0.995,1.417 2.614,2.371 4.478,2.438s3.546,-0.769 4.641,-2.11"/>
   <path id="svg_84" stroke-miterlimit="10" stroke-linejoin="round" stroke-linecap="round" stroke-width="1.735" stroke="#0274BD" fill="none" d="m420.96402,360.572c-0.497,-1.658 -1.732,-3.075 -3.479,-3.726c-1.747,-0.652 -3.608,-0.39 -5.07,0.537"/>
   <path id="svg_85" stroke-miterlimit="10" stroke-linejoin="round" stroke-linecap="round" stroke-width="1.735" stroke="#0274BD" fill="none" d="m352.35202,342.212c-1.655,-0.507 -3.519,-0.266 -5.031,0.826c-1.512,1.092 -2.327,2.784 -2.367,4.515"/>
   <path id="svg_86" stroke-miterlimit="10" stroke-linejoin="round" stroke-linecap="round" stroke-width="1.735" stroke="#0274BD" fill="none" d="m350.62702,384.872c-1.668,-0.463 -3.525,-0.173 -5.007,0.959c-1.482,1.131 -2.252,2.845 -2.246,4.576"/>
  </g>
  <g id="svg_87">
   <path id="svg_88" stroke-miterlimit="10" stroke-linejoin="round" stroke-linecap="round" stroke-width="1.8364" stroke="#0274BD" fill="#0274BD" d="m172.96602,272.237c-0.656,0 -1.293,0.08 -1.909,0.221c3.274,-4.133 5.24,-9.411 5.24,-15.164c0,-13.249 -10.416,-23.989 -23.265,-23.989c-12.541,0 -22.759,10.233 -23.242,23.042c-2.667,-2.506 -6.202,-4.046 -10.094,-4.046c-8.289,0 -15.009,6.929 -15.009,15.476c0,1.647 0.255,3.232 0.717,4.721c-0.66,-0.164 -1.346,-0.26 -2.054,-0.26c-4.845,0 -8.773,4.05 -8.773,9.046c0,4.996 3.928,9.046 8.773,9.046c1.962,0 3.767,-0.672 5.229,-1.794c2.335,10.706 11.604,18.706 22.692,18.706c6.637,0 12.619,-2.87 16.858,-7.466c2.185,1.281 4.706,2.021 7.399,2.021c7.114,0 13.058,-5.109 14.605,-11.959c0.89,0.314 1.841,0.492 2.834,0.492c4.845,0 8.773,-4.05 8.773,-9.046c-0.001,-4.997 -3.929,-9.047 -8.774,-9.047z"/>
   <path id="svg_89" fill="#FFFFFF" d="m171.68002,271.128c-0.619,0 -1.22,0.073 -1.799,0.202c3.087,-3.779 4.94,-8.605 4.94,-13.866c0,-12.114 -9.821,-21.935 -21.935,-21.935c-11.824,0 -21.458,9.357 -21.913,21.069c-2.514,-2.291 -5.847,-3.7 -9.517,-3.7c-7.815,0 -14.151,6.335 -14.151,14.15c0,1.506 0.24,2.955 0.676,4.316c-0.622,-0.15 -1.269,-0.237 -1.937,-0.237c-4.568,0 -8.271,3.703 -8.271,8.271c0,4.568 3.703,8.271 8.271,8.271c1.85,0 3.552,-0.615 4.93,-1.641c2.201,9.789 10.941,17.104 21.395,17.104c6.257,0 11.897,-2.624 15.894,-6.827c2.06,1.171 4.437,1.848 6.976,1.848c6.707,0 12.311,-4.671 13.769,-10.935c0.839,0.287 1.735,0.449 2.672,0.449c4.568,0 8.271,-3.703 8.271,-8.271c0,-4.565 -3.703,-8.268 -8.271,-8.268z"/>
   <path id="svg_90" stroke-miterlimit="10" stroke-linejoin="round" stroke-linecap="round" stroke-width="1.8364" stroke="#0274BD" fill="none" d="m171.68002,271.128c-0.619,0 -1.22,0.073 -1.799,0.202c3.087,-3.779 4.94,-8.605 4.94,-13.866c0,-12.114 -9.821,-21.935 -21.935,-21.935c-11.824,0 -21.458,9.357 -21.913,21.069c-2.514,-2.291 -5.847,-3.7 -9.517,-3.7c-7.815,0 -14.151,6.335 -14.151,14.15c0,1.506 0.24,2.955 0.676,4.316c-0.622,-0.15 -1.269,-0.237 -1.937,-0.237c-4.568,0 -8.271,3.703 -8.271,8.271c0,4.568 3.703,8.271 8.271,8.271c1.85,0 3.552,-0.615 4.93,-1.641c2.201,9.789 10.941,17.104 21.395,17.104c6.257,0 11.897,-2.624 15.894,-6.827c2.06,1.171 4.437,1.848 6.976,1.848c6.707,0 12.311,-4.671 13.769,-10.935c0.839,0.287 1.735,0.449 2.672,0.449c4.568,0 8.271,-3.703 8.271,-8.271c0,-4.565 -3.703,-8.268 -8.271,-8.268z"/>
   <path id="svg_91" stroke-miterlimit="10" stroke-linejoin="round" stroke-linecap="round" stroke-width="1.8364" stroke="#0274BD" fill="none" d="m136.55502,257.623c-1.588,-0.914 -3.567,-1.107 -5.385,-0.338c-1.818,0.768 -3.059,2.322 -3.51,4.098"/>
   <path id="svg_92" stroke-miterlimit="10" stroke-linejoin="round" stroke-linecap="round" stroke-width="1.8364" stroke="#0274BD" fill="none" d="m142.35702,294.913c1.455,1.113 3.393,1.562 5.295,1.037c1.903,-0.525 3.336,-1.904 4.014,-3.606"/>
  </g>
  <g id="svg_93">
   <path id="svg_94" stroke-miterlimit="10" stroke-linejoin="round" stroke-linecap="round" stroke-width="1.8364" stroke="#0274BD" fill="#0274BD" d="m480.20602,533.15c-2.381,0 -4.568,0.829 -6.314,2.208c0.013,-0.216 0.032,-0.43 0.032,-0.65c0,-5.743 -4.576,-10.399 -10.22,-10.399c-0.345,0 -0.686,0.018 -1.023,0.053c-1.94,-14.719 -14.323,-26.072 -29.321,-26.072c-14.974,0 -27.342,11.317 -29.312,26.002c-1.516,-1.983 -3.878,-3.264 -6.538,-3.264c-4.576,0 -8.286,3.775 -8.286,8.431c0,1.689 0.492,3.259 1.333,4.578c-0.108,0.19 -0.209,0.384 -0.305,0.582c-1.538,-0.932 -3.335,-1.468 -5.256,-1.468c-5.697,0 -10.315,4.699 -10.315,10.495s4.618,10.495 10.315,10.495c2.945,0 5.595,-1.262 7.475,-3.276c1.777,3.162 5.118,5.298 8.954,5.298c0.019,0 0.037,-0.003 0.056,-0.003c-0.034,0.311 -0.056,0.627 -0.056,0.948c0,4.656 3.71,8.431 8.286,8.431c1.346,0 2.612,-0.334 3.736,-0.913c5.335,7.892 14.27,13.07 24.396,13.07c12.884,0 23.84,-8.38 27.903,-20.074c0.627,0.154 1.278,0.245 1.951,0.245c3.377,0 6.276,-2.058 7.567,-5.006c1.467,0.816 3.151,1.282 4.941,1.282c5.697,0 10.315,-4.699 10.315,-10.495s-4.617,-10.498 -10.314,-10.498z"/>
   <path id="svg_95" fill="#FFFFFF" d="m476.42202,533.523c-2.236,0 -4.29,0.765 -5.929,2.038c0.012,-0.199 0.03,-0.397 0.03,-0.6c0,-5.301 -4.297,-9.598 -9.598,-9.598c-0.324,0 -0.645,0.017 -0.961,0.048c-1.822,-13.586 -13.452,-24.065 -27.536,-24.065c-14.062,0 -25.678,10.446 -27.528,24c-1.424,-1.831 -3.642,-3.013 -6.14,-3.013c-4.298,0 -7.782,3.484 -7.782,7.782c0,1.559 0.462,3.009 1.252,4.225c-0.102,0.175 -0.196,0.354 -0.286,0.537c-1.445,-0.86 -3.132,-1.355 -4.936,-1.355c-5.35,0 -9.688,4.337 -9.688,9.688c0,5.35 4.337,9.688 9.688,9.688c2.766,0 5.255,-1.165 7.02,-3.024c1.669,2.919 4.806,4.89 8.409,4.89c0.018,0 0.035,-0.003 0.052,-0.003c-0.032,0.287 -0.052,0.578 -0.052,0.875c0,4.298 3.484,7.782 7.782,7.782c1.264,0 2.454,-0.308 3.509,-0.843c5.011,7.285 13.401,12.064 22.911,12.064c12.1,0 22.389,-7.735 26.205,-18.529c0.589,0.142 1.2,0.226 1.832,0.226c3.171,0 5.894,-1.9 7.107,-4.621c1.378,0.754 2.959,1.183 4.64,1.183c5.35,0 9.688,-4.337 9.688,-9.688c-0.001,-5.35 -4.339,-9.687 -9.689,-9.687z"/>
   <path id="svg_96" stroke-miterlimit="10" stroke-linejoin="round" stroke-linecap="round" stroke-width="1.8364" stroke="#0274BD" fill="none" d="m476.42202,533.523c-2.236,0 -4.29,0.765 -5.929,2.038c0.012,-0.199 0.03,-0.397 0.03,-0.6c0,-5.301 -4.297,-9.598 -9.598,-9.598c-0.324,0 -0.645,0.017 -0.961,0.048c-1.822,-13.586 -13.452,-24.065 -27.536,-24.065c-14.062,0 -25.678,10.446 -27.528,24c-1.424,-1.831 -3.642,-3.013 -6.14,-3.013c-4.298,0 -7.782,3.484 -7.782,7.782c0,1.559 0.462,3.009 1.252,4.225c-0.102,0.175 -0.196,0.354 -0.286,0.537c-1.445,-0.86 -3.132,-1.355 -4.936,-1.355c-5.35,0 -9.688,4.337 -9.688,9.688c0,5.35 4.337,9.688 9.688,9.688c2.766,0 5.255,-1.165 7.02,-3.024c1.669,2.919 4.806,4.89 8.409,4.89c0.018,0 0.035,-0.003 0.052,-0.003c-0.032,0.287 -0.052,0.578 -0.052,0.875c0,4.298 3.484,7.782 7.782,7.782c1.264,0 2.454,-0.308 3.509,-0.843c5.011,7.285 13.401,12.064 22.911,12.064c12.1,0 22.389,-7.735 26.205,-18.529c0.589,0.142 1.2,0.226 1.832,0.226c3.171,0 5.894,-1.9 7.107,-4.621c1.378,0.754 2.959,1.183 4.64,1.183c5.35,0 9.688,-4.337 9.688,-9.688c-0.001,-5.35 -4.339,-9.687 -9.689,-9.687z"/>
   <path id="svg_97" stroke-miterlimit="10" stroke-linejoin="round" stroke-linecap="round" stroke-width="1.8364" stroke="#0274BD" fill="none" d="m410.26402,524.938c-1.47,-0.691 -3.232,-0.715 -4.782,0.098c-1.549,0.813 -2.531,2.276 -2.799,3.878"/>
   <path id="svg_98" stroke-miterlimit="10" stroke-linejoin="round" stroke-linecap="round" stroke-width="1.8364" stroke="#0274BD" fill="none" d="m457.63902,524.957c-1.617,-0.157 -3.285,0.413 -4.471,1.699c-1.186,1.286 -1.619,2.995 -1.332,4.593"/>
   <path id="svg_99" stroke-miterlimit="10" stroke-linejoin="round" stroke-linecap="round" stroke-width="1.8364" stroke="#0274BD" fill="none" d="m451.93002,531.267c-0.775,-1.428 -2.18,-2.491 -3.909,-2.755c-1.73,-0.263 -3.388,0.334 -4.553,1.466"/>
   <path id="svg_100" stroke-miterlimit="10" stroke-linejoin="round" stroke-linecap="round" stroke-width="1.8364" stroke="#0274BD" fill="none" d="m410.73602,558.358c0.384,1.578 1.471,2.966 3.076,3.662s3.361,0.543 4.776,-0.254"/>
   <path id="svg_101" stroke-miterlimit="10" stroke-linejoin="round" stroke-linecap="round" stroke-width="1.8364" stroke="#0274BD" fill="none" d="m390.01002,547.151c0.947,1.32 2.474,2.2 4.223,2.245c1.749,0.046 3.32,-0.754 4.334,-2.022"/>
  </g>
  <g id="svg_102">
   <g id="svg_103">
    <path id="svg_104" stroke-miterlimit="10" stroke-linejoin="round" stroke-linecap="round" stroke-width="1.8364" stroke="#0274BD" fill="#0274BD" d="m630.97702,377.136c0.054,-0.604 0.088,-1.214 0.088,-1.832c0,-10.566 -8.116,-19.131 -18.128,-19.131c-5.373,0 -10.185,2.481 -13.504,6.4c-1.671,-0.897 -3.557,-1.413 -5.56,-1.413c-6.79,0 -12.294,5.809 -12.294,12.974c0,1.278 0.182,2.51 0.508,3.676c-1.028,-0.448 -2.154,-0.698 -3.336,-0.698c-4.833,0 -8.751,4.135 -8.751,9.235c0,5.101 3.918,9.236 8.751,9.236c1.794,0 3.46,-0.572 4.848,-1.548c2.377,7.642 9.181,13.165 17.217,13.165c5.178,0 9.836,-2.303 13.139,-5.976c1.601,2.183 4.101,3.595 6.919,3.595c4.833,0 8.751,-4.135 8.751,-9.235c0,-0.016 -0.002,-0.031 -0.002,-0.047c0.291,0.031 0.585,0.047 0.883,0.047c4.833,0 8.751,-4.135 8.751,-9.236c0.002,-4.934 -3.666,-8.952 -8.28,-9.212z"/>
    <path id="svg_105" fill="#FFFFFF" d="m628.47402,377.326c0.051,-0.537 0.082,-1.079 0.082,-1.629c0,-9.395 -7.616,-17.01 -17.01,-17.01c-5.041,0 -9.557,2.206 -12.672,5.69c-1.568,-0.798 -3.337,-1.257 -5.217,-1.257c-6.371,0 -11.536,5.165 -11.536,11.536c0,1.136 0.171,2.231 0.477,3.269c-0.965,-0.398 -2.021,-0.621 -3.13,-0.621c-4.535,0 -8.212,3.677 -8.212,8.212c0,4.535 3.677,8.212 8.212,8.212c1.683,0 3.247,-0.508 4.549,-1.377c2.23,6.795 8.615,11.706 16.156,11.706c4.858,0 9.23,-2.048 12.33,-5.314c1.502,1.941 3.848,3.197 6.492,3.197c4.535,0 8.212,-3.676 8.212,-8.212c0,-0.014 -0.002,-0.028 -0.002,-0.042c0.273,0.027 0.549,0.042 0.829,0.042c4.535,0 8.212,-3.677 8.212,-8.212c-0.002,-4.387 -3.443,-7.959 -7.772,-8.19z"/>
    <path id="svg_106" stroke-miterlimit="10" stroke-linejoin="round" stroke-linecap="round" stroke-width="1.8364" stroke="#0274BD" fill="none" d="m628.47402,377.326c0.051,-0.537 0.082,-1.079 0.082,-1.629c0,-9.395 -7.616,-17.01 -17.01,-17.01c-5.041,0 -9.557,2.206 -12.672,5.69c-1.568,-0.798 -3.337,-1.257 -5.217,-1.257c-6.371,0 -11.536,5.165 -11.536,11.536c0,1.136 0.171,2.231 0.477,3.269c-0.965,-0.398 -2.021,-0.621 -3.13,-0.621c-4.535,0 -8.212,3.677 -8.212,8.212c0,4.535 3.677,8.212 8.212,8.212c1.683,0 3.247,-0.508 4.549,-1.377c2.23,6.795 8.615,11.706 16.156,11.706c4.858,0 9.23,-2.048 12.33,-5.314c1.502,1.941 3.848,3.197 6.492,3.197c4.535,0 8.212,-3.676 8.212,-8.212c0,-0.014 -0.002,-0.028 -0.002,-0.042c0.273,0.027 0.549,0.042 0.829,0.042c4.535,0 8.212,-3.677 8.212,-8.212c-0.002,-4.387 -3.443,-7.959 -7.772,-8.19z"/>
   </g>
   <path id="svg_107" stroke-linejoin="round" stroke-linecap="round" stroke-width="1.735" stroke="#0274BD" fill="none" d="m602.25002,369.806c-1.506,-0.855 -3.377,-1.025 -5.09,-0.288c-1.713,0.737 -2.877,2.212 -3.292,3.892"/>
  </g>
 </g>
</svg>