<svg xmlns="http://www.w3.org/2000/svg" width="100" height="100" viewBox="0 0 100 100">
  <defs>
    <pattern id="stars" x="0" y="0" width="100" height="100" patternUnits="userSpaceOnUse">
      <circle cx="20" cy="20" r="1.5" fill="#345BC0" opacity="0.05"/>
      <circle cx="60" cy="40" r="1" fill="#80D46D" opacity="0.05"/>
      <circle cx="80" cy="70" r="1.2" fill="#FF6F61" opacity="0.05"/>
      <circle cx="30" cy="80" r="1" fill="#345BC0" opacity="0.05"/>
      <circle cx="70" cy="15" r="1.3" fill="#80D46D" opacity="0.05"/>
      <polygon points="45,25 46,27 48,27 46.5,28.5 47,30.5 45,29 43,30.5 43.5,28.5 42,27 44,27" fill="#FF6F61" opacity="0.06"/>
      <polygon points="15,60 16,62 18,62 16.5,63.5 17,65.5 15,64 13,65.5 13.5,63.5 12,62 14,62" fill="#345BC0" opacity="0.06"/>
      <polygon points="85,45 86,47 88,47 86.5,48.5 87,50.5 85,49 83,50.5 83.5,48.5 82,47 84,47" fill="#80D46D" opacity="0.06"/>
    </pattern>
  </defs>
  <rect width="100" height="100" fill="url(#stars)"/>
</svg>
